<?xml version="1.0" standalone="no"?>
<!DOCTYPE svg PUBLIC "-//W3C//DTD SVG 20010904//EN"
 "http://www.w3.org/TR/2001/REC-SVG-20010904/DTD/svg10.dtd">
<svg version="1.0" xmlns="http://www.w3.org/2000/svg"
 width="96.000000pt" height="96.000000pt" viewBox="0 0 96.000000 96.000000"
 preserveAspectRatio="xMidYMid meet">
<metadata>
Created by potrace 1.14, written by Peter Selinger 2001-2017
</metadata>
<g transform="translate(0.000000,96.000000) scale(0.100000,-0.100000)"
fill="#000000" stroke="none">
<path d="M72 916 c-38 -21 -39 -33 -40 -347 l0 -307 24 -23 c23 -21 34 -23
128 -23 115 0 108 6 87 -73 -10 -38 -14 -42 -42 -41 -40 1 -58 -22 -39 -52 13
-21 555 -23 576 -2 26 25 10 50 -34 56 -18 2 -34 5 -36 7 -2 2 -7 27 -13 55
l-9 50 94 -1 c117 -1 148 12 156 63 7 48 6 559 0 595 -3 15 -15 33 -27 39 -28
16 -797 19 -825 4z"/>
</g>
</svg>
